<svg 
          width="25" 
          height="22.61553955078125" fill="none" 
          xmlns="http://www.w3.org/2000/svg">
          <path d="M 1.3888888888888888 22.61553955078125 C 0.9953703731298447 22.61553955078125 0.6657408964302804 22.434615036220293 0.4000001483493381 22.07276640026248 C 0.13333347936471307 21.712174176353756 0 21.264889268309616 0 20.730911254882812 C 0 20.19693324145601 0.13333347936471307 19.74964833341187 0.4000001483493381 19.389056109503144 C 0.6657408964302804 19.02720747354533 0.9953703731298447 18.846282958984375 1.3888888888888888 18.846282958984375 L 23.61111111111111 18.846282958984375 C 24.004629626870155 18.846282958984375 24.334259103569718 19.02720747354533 24.59999985165066 19.389056109503144 C 24.866666520635288 19.74964833341187 25 20.19693324145601 25 20.730911254882812 C 25 21.264889268309616 24.866666520635288 21.712174176353756 24.59999985165066 22.07276640026248 C 24.334259103569718 22.434615036220293 24.004629626870155 22.61553955078125 23.61111111111111 22.61553955078125 L 1.3888888888888888 22.61553955078125 Z M 1.3888888888888888 13.192398071289062 C 0.9953703731298447 13.192398071289062 0.6657408964302804 13.011473556728106 0.4000001483493381 12.649624920770293 C 0.13333347936471307 12.289032696861568 0 11.841747788817429 0 11.307769775390625 C 0 10.773791761963821 0.13333347936471307 10.325877875608512 0.4000001483493381 9.9640292396507 C 0.6657408964302804 9.603437015741974 0.9953703731298447 9.423141479492188 1.3888888888888888 9.423141479492188 L 23.61111111111111 9.423141479492188 C 24.004629626870155 9.423141479492188 24.334259103569718 9.603437015741974 24.59999985165066 9.9640292396507 C 24.866666520635288 10.325877875608512 25 10.773791761963821 25 11.307769775390625 C 25 11.841747788817429 24.866666520635288 12.289032696861568 24.59999985165066 12.649624920770293 C 24.334259103569718 13.011473556728106 24.004629626870155 13.192398071289062 23.61111111111111 13.192398071289062 L 1.3888888888888888 13.192398071289062 Z M 1.3888888888888888 3.769256591796875 C 0.9953703731298447 3.769256591796875 0.6657408964302804 3.5889601568862872 0.4000001483493381 3.2283679329775623 C 0.13333347936471307 2.8665192970197495 0 2.4186063093252415 0 1.8846282958984375 C 0 1.3506502824716335 0.13333347936471307 0.9027372947771255 0.4000001483493381 0.5408886588193127 C 0.6657408964302804 0.18029643491058778 0.9953703731298447 0 1.3888888888888888 0 L 23.61111111111111 0 C 24.004629626870155 0 24.334259103569718 0.18029643491058778 24.59999985165066 0.5408886588193127 C 24.866666520635288 0.9027372947771255 25 1.3506502824716335 25 1.8846282958984375 C 25 2.4186063093252415 24.866666520635288 2.8665192970197495 24.59999985165066 3.2283679329775623 C 24.334259103569718 3.5889601568862872 24.004629626870155 3.769256591796875 23.61111111111111 3.769256591796875 L 1.3888888888888888 3.769256591796875 Z" fill="rgb(247.00000047683716,251.00000023841858,255)"/>
        </svg>