<svg 
          width="18.33333396911621" 
          height="19.25" fill="none" 
          xmlns="http://www.w3.org/2000/svg">
          <path d="M 11.000000381469725 8.25 L 9.166666984558105 8.25 L 9.166666984558105 6.416666666666666 L 11.000000381469725 6.416666666666666 L 11.000000381469725 8.25 Z M 11.000000381469725 4.583333333333333 L 9.166666984558105 4.583333333333333 L 9.166666984558105 0 L 11.000000381469725 0 L 11.000000381469725 4.583333333333333 Z M 5.500000190734863 15.583333333333332 C 4.491666800578434 15.583333333333332 3.675833670616157 16.408333311478295 3.675833670616157 17.416666666666664 C 3.675833670616157 18.425000021855034 4.491666800578434 19.25 5.500000190734863 19.25 C 6.508333580891291 19.25 7.333333587646484 18.425000021855034 7.333333587646484 17.416666666666664 C 7.333333587646484 16.408333311478295 6.508333580891291 15.583333333333332 5.500000190734863 15.583333333333332 Z M 14.666667175292968 15.583333333333332 C 13.65833378513654 15.583333333333332 12.842500655174263 16.408333311478295 12.842500655174263 17.416666666666664 C 12.842500655174263 18.425000021855034 13.65833378513654 19.25 14.666667175292968 19.25 C 15.675000565449396 19.25 16.500000572204588 18.425000021855034 16.500000572204588 17.416666666666664 C 16.500000572204588 16.408333311478295 15.675000565449396 15.583333333333332 14.666667175292968 15.583333333333332 Z M 6.50833390871685 11 L 13.33750063737234 11 C 14.025000661214198 11 14.629999804715291 10.624166915814081 14.941666485468522 10.055833578109741 L 18.33333396911621 3.630000034968058 L 16.72916724681854 2.75 L 13.33750063737234 9.166666666666666 L 6.9024999945958365 9.166666666666666 L 2.9975000864664705 0.9166666666666666 L 0 0.9166666666666666 L 0 2.75 L 1.833333396911621 2.75 L 5.13333342393239 9.707500139872232 L 3.8958334684371945 11.944166421890259 C 3.226666761080423 13.172499785820643 4.106666826566061 14.666666666666666 5.500000190734863 14.666666666666666 L 16.500000572204588 14.666666666666666 L 16.500000572204588 12.833333333333332 L 5.500000190734863 12.833333333333332 L 6.50833390871685 11 Z" fill="rgb(170.0000050663948,166.00000530481339,178.00000458955765)"/>
        </svg>