<svg 
          width="31" 
          height="27.899999618530273" fill="none" 
          xmlns="http://www.w3.org/2000/svg">
          <path d="M 10.85 0 L 8.013500118255616 3.0999999576144748 L 3.1 3.0999999576144748 C 1.3949999630451202 3.0999999576144748 0 4.494999901586109 0 6.1999999152289496 L 0 24.799999660915798 C 0 26.50499967455864 1.3949999630451202 27.899999618530273 3.1 27.899999618530273 L 27.900000000000002 27.899999618530273 C 29.60500003695488 27.899999618530273 31 26.50499967455864 31 24.799999660915798 L 31 6.1999999152289496 C 31 4.494999901586109 29.60500003695488 3.0999999576144748 27.900000000000002 3.0999999576144748 L 22.986499881744386 3.0999999576144748 L 20.150000000000002 0 L 10.85 0 Z M 15.5 23.249999682108562 C 11.222000014781951 23.249999682108562 7.75 19.777999714798398 7.75 15.499999788072374 C 7.75 11.221999861346351 11.222000014781951 7.749999894036187 15.5 7.749999894036187 C 19.77799998521805 7.749999894036187 23.25 11.221999861346351 23.25 15.499999788072374 C 23.25 19.777999714798398 19.77799998521805 23.249999682108562 15.5 23.249999682108562 Z" fill="rgb(247.00000047683716,251.00000023841858,255)"/>
        </svg>