<svg 
          width="5.853444576263428" 
          height="8.36206340789795" fill="none" 
          xmlns="http://www.w3.org/2000/svg">
          <path d="M 0.45423212339416963 6.442160129547119 L 0.012532105705209665 8.019160270690918 C -0.00019762870568281257 8.064592223614454 -0.0033138256668522503 8.1143629103899 0.003569783479812918 8.162301063537598 C 0.010453392626478087 8.210239216685295 0.027034104378770824 8.254237052053213 0.05125637444979999 8.288840293884277 C 0.07547864452082916 8.323443535715342 0.10627725023629389 8.347130384296179 0.13983395853312958 8.356964111328125 C 0.17339066682996526 8.366797838360071 0.20822973147549712 8.362345414236188 0.24003209955825472 8.344160079956055 L 1.344282146388358 7.713160514831543 C 1.520321582623691 7.612647093832493 1.6802371304370884 7.4621042013168335 1.8143321390075182 7.270660400390625 L 5.635982315606849 1.8106601238250732 C 5.7752209772012355 1.61174775660038 5.853444576263428 1.3419646918773651 5.853444576263428 1.0606601238250732 C 5.853444576263428 0.7793555557727814 5.7752209772012355 0.5095725506544113 5.635982315606849 0.310660183429718 C 5.496743654012463 0.11174781620502472 5.307895502552724 5.551115123125783e-16 5.110982298499691 0 C 4.914069094446657 1.1102230246251565e-16 4.725220942986918 0.11174781620502472 4.585982281392532 0.310660183429718 L 0.7639821301495332 5.770660400390625 C 0.6299714651344412 5.962224692106247 0.5245915203861702 6.190675228834152 0.45423212339416963 6.442160129547119 Z" fill="rgb(255,255,255)"/>
        </svg>