<svg 
          width="23.33333396911621" 
          height="23.33333396911621" fill="none" 
          xmlns="http://www.w3.org/2000/svg">
          <path d="M 8.166666889190674 0 C 3.6701600359551554 0 0 3.6701600359551554 0 8.166666889190674 C 0 12.663174298736227 3.6701600359551554 16.33333377838135 8.166666889190674 16.33333377838135 C 10.205997943814532 16.33333377838135 12.069177181562065 15.572695103423563 13.503255576267838 14.328125390410422 L 14.000000381469725 14.824870195612311 L 14.000000381469725 16.33333377838135 L 21.000000572204588 23.33333396911621 L 23.33333396911621 21.000000572204588 L 16.33333377838135 14.000000381469725 L 14.824870195612311 14.000000381469725 L 14.328125390410422 13.503255576267838 C 15.572695103423563 12.069177181562065 16.33333377838135 10.205997943814532 16.33333377838135 8.166666889190674 C 16.33333377838135 3.6701600359551554 12.663174298736227 0 8.166666889190674 0 Z M 8.166666889190674 2.333333396911621 C 11.402146292472457 2.333333396911621 14.000000381469725 4.931186929598858 14.000000381469725 8.166666889190674 C 14.000000381469725 11.402146292472457 11.402146292472457 14.000000381469725 8.166666889190674 14.000000381469725 C 4.931186929598858 14.000000381469725 2.333333396911621 11.402146292472457 2.333333396911621 8.166666889190674 C 2.333333396911621 4.931186929598858 4.931186929598858 2.333333396911621 8.166666889190674 2.333333396911621 Z" fill="rgb(170.0000050663948,166.00000530481339,178.00000458955765)"/>
        </svg>