<svg 
          width="14.666666984558105" 
          height="18.33333396911621" fill="none" 
          xmlns="http://www.w3.org/2000/svg">
          <path d="M 9.166666865348816 0 L 1.8333333730697632 0 C 0.8249999960263565 0 0.009166876673702973 0.8250000067551924 0.009166876673702973 1.833333396911621 L 0 16.500000572204588 C 0 17.508333962361018 0.8158331193526536 18.33333396911621 1.8241664963960602 18.33333396911621 L 12.833333611488342 18.33333396911621 C 13.841666988531749 18.33333396911621 14.666666984558105 17.508333962361018 14.666666984558105 16.500000572204588 L 14.666666984558105 5.500000190734863 L 9.166666865348816 0 Z M 11.000000238418579 14.666667175292968 L 3.6666667461395264 14.666667175292968 L 3.6666667461395264 12.833333778381347 L 11.000000238418579 12.833333778381347 L 11.000000238418579 14.666667175292968 Z M 11.000000238418579 11.000000381469725 L 3.6666667461395264 11.000000381469725 L 3.6666667461395264 9.166666984558105 L 11.000000238418579 9.166666984558105 L 11.000000238418579 11.000000381469725 Z M 8.250000178813934 6.416666889190673 L 8.250000178813934 1.3750000476837156 L 13.291666954755783 6.416666889190673 L 8.250000178813934 6.416666889190673 Z" fill="rgb(170.0000050663948,166.00000530481339,178.00000458955765)"/>
        </svg>